<?xml version="1.0" encoding="UTF-8"?>
<svg version="1.1" xmlns="http://www.w3.org/2000/svg" width="500" height="500">
<path d="M0 0 C1.66028348 -0.00577349 3.32056055 -0.01372279 4.98082447 -0.02363622 C9.50577469 -0.04436446 14.03019258 -0.03425883 18.55514383 -0.01870513 C23.44958879 -0.00733765 28.34394566 -0.02488097 33.2383728 -0.03860474 C42.81179075 -0.0607843 52.38501218 -0.05605953 61.95843768 -0.04154153 C69.74213438 -0.03022847 77.52577619 -0.02872733 85.30947876 -0.03416061 C86.419235 -0.03492678 87.52899124 -0.03569294 88.67237645 -0.03648233 C90.92714876 -0.03808103 93.18192104 -0.0397021 95.43669331 -0.04134528 C116.55690512 -0.05558732 137.67700825 -0.03923431 158.79720223 -0.01234345 C176.90123285 0.00999389 195.00510314 0.00611333 213.10913086 -0.01693726 C234.15613664 -0.04372256 255.20304727 -0.05421416 276.25006771 -0.03887594 C278.49633215 -0.03728327 280.74259661 -0.03571141 282.98886108 -0.03416061 C284.09393361 -0.03338924 285.19900614 -0.03261786 286.33756572 -0.03182311 C294.10776774 -0.02751431 301.87790917 -0.03477497 309.64810181 -0.04655838 C319.12334188 -0.06061225 328.59837497 -0.05672277 338.07359147 -0.03015466 C342.90377452 -0.01705535 347.73361304 -0.01179755 352.56379318 -0.02840042 C356.99288613 -0.04339386 361.42131799 -0.03495841 365.85035169 -0.00851266 C367.44505078 -0.00296724 369.03980672 -0.00567864 370.63446867 -0.0178916 C389.15645368 -0.14876754 403.34285553 6.01198082 416.89916992 18.82241821 C430.28521398 32.80726077 434.77138876 47.22544188 434.66383362 66.24523926 C434.66916733 67.90379423 434.67623773 69.56234436 434.68488067 71.2208854 C434.70342582 75.75028242 434.6972312 80.27935066 434.68672764 84.80876088 C434.67971243 89.70459756 434.69575118 94.60036827 434.70872498 99.4961853 C434.73033172 109.0765329 434.73024655 118.65676156 434.72209943 128.2371255 C434.71579124 136.02658618 434.71694398 143.81601225 434.72337151 151.60547256 C434.72427316 152.71549978 434.72517482 153.825527 434.72610379 154.96919141 C434.72795506 157.22444677 434.72981762 159.47970213 434.73169135 161.73495747 C434.74825839 182.86849489 434.73956009 204.0019655 434.72270577 225.1354989 C434.70801142 244.4537842 434.72263549 263.77191392 434.75147594 283.09017919 C434.78089573 302.94496154 434.79183457 322.79967215 434.78229374 342.65447533 C434.78127123 344.90189432 434.78027661 347.14931332 434.77931023 349.39673233 C434.77883384 350.50239484 434.77835745 351.60805734 434.77786662 352.74722477 C434.77570582 360.52241747 434.78548885 368.29754199 434.80008125 376.07271957 C434.81763045 385.55531949 434.81745011 395.03772115 434.7947296 404.52031337 C434.78361072 409.35453867 434.78037143 414.18841502 434.7990303 419.02262497 C434.81591934 423.4554893 434.80937093 427.88770262 434.78481352 432.32052542 C434.77995731 433.91663396 434.78337128 435.51279586 434.79630096 437.1088594 C434.93581931 455.68454584 428.76014314 469.91556466 415.83666992 483.44741821 C401.93559243 496.71836444 387.08633901 501.4137272 368.29833984 501.26983643 C366.63805636 501.27560991 364.97777929 501.28355921 363.31751537 501.29347265 C358.79256516 501.31420089 354.26814727 501.30409526 349.74319601 501.28854156 C344.84875106 501.27717408 339.95439418 501.29471739 335.05996704 501.30844116 C325.4865491 501.33062073 315.91332766 501.32589595 306.33990216 501.31137796 C298.55620546 501.30006489 290.77256366 501.29856375 282.98886108 501.30399704 C281.87910484 501.3047632 280.76934861 501.30552937 279.62596339 501.30631875 C277.37119109 501.30791745 275.1164188 501.30953852 272.86164653 501.31118171 C251.74143472 501.32542374 230.6213316 501.30907074 209.50113761 501.28217988 C191.397107 501.25984253 173.29323671 501.26372309 155.18920898 501.28677368 C134.14220321 501.31355899 113.09529258 501.32405059 92.04827213 501.30871236 C89.80200769 501.30711969 87.55574323 501.30554784 85.30947876 501.30399704 C83.65186996 501.30283997 83.65186996 501.30283997 81.96077412 501.30165953 C74.1905721 501.29735073 66.42043067 501.30461139 58.65023804 501.31639481 C49.17499796 501.33044868 39.69996487 501.32655919 30.22474837 501.29999109 C25.39456532 501.28689177 20.56472681 501.28163398 15.73454666 501.29823685 C11.30545371 501.31323029 6.87702185 501.30479484 2.44798815 501.27834909 C0.85328907 501.27280366 -0.74146687 501.27551506 -2.33612883 501.28772803 C-20.85811384 501.41860396 -35.04451569 495.25785561 -48.60083008 482.44741821 C-61.98687413 468.46257565 -66.47304891 454.04439455 -66.36549377 435.02459717 C-66.37082748 433.36604219 -66.37789789 431.70749206 -66.38654083 430.04895103 C-66.40508598 425.51955401 -66.39889136 420.99048576 -66.3883878 416.46107554 C-66.38137258 411.56523886 -66.39741134 406.66946815 -66.41038513 401.77365112 C-66.43199188 392.19330353 -66.43190671 382.61307487 -66.42375959 373.03271092 C-66.41745139 365.24325025 -66.41860414 357.45382418 -66.42503166 349.66436386 C-66.42593332 348.55433664 -66.42683497 347.44430942 -66.42776395 346.30064502 C-66.42961522 344.04538965 -66.43147778 341.7901343 -66.43335151 339.53487895 C-66.44991854 318.40134153 -66.44122025 297.26787093 -66.42436593 276.13433753 C-66.40967157 256.81605223 -66.42429564 237.4979225 -66.45313609 218.17965724 C-66.48255588 198.32487489 -66.49349473 178.47016428 -66.48395389 158.61536109 C-66.48293138 156.36794211 -66.48193677 154.12052311 -66.48097038 151.8731041 C-66.48049399 150.76744159 -66.4800176 149.66177908 -66.47952678 148.52261166 C-66.47736598 140.74741896 -66.487149 132.97229444 -66.50174141 125.19711685 C-66.5192906 115.71451694 -66.51911027 106.23211527 -66.49638975 96.74952306 C-66.48527087 91.91529776 -66.48203159 87.08142141 -66.50069046 82.24721146 C-66.51757949 77.81434712 -66.51103109 73.38213381 -66.48647367 68.949311 C-66.48161747 67.35320247 -66.48503144 65.75704057 -66.49796111 64.16097702 C-66.63747946 45.58529058 -60.46180329 31.35427177 -47.53833008 17.82241821 C-33.63725259 4.55147198 -18.78799917 -0.14389077 0 0 Z M-18.85083008 35.63491821 C-19.64875977 36.0925354 -20.44668945 36.55015259 -21.26879883 37.02163696 C-28.09987466 42.04315628 -32.68791373 48.39502188 -34.85083008 56.63491821 C-35.1401301 60.48236296 -35.11192473 64.31942667 -35.09133911 68.17614746 C-35.09304796 69.34508643 -35.09475681 70.5140254 -35.09651744 71.71838677 C-35.09923855 74.95433915 -35.09300159 78.19013065 -35.08296132 81.42606401 C-35.07431421 84.91883361 -35.07724787 88.41159588 -35.07876587 91.90437317 C-35.07981392 97.95297899 -35.07354565 104.00154161 -35.06229019 110.05013657 C-35.04602737 118.79535365 -35.04082638 127.54054988 -35.03831421 136.28578044 C-35.03393834 150.47476268 -35.02063215 164.66372191 -35.00170898 178.85269165 C-34.9833474 192.63491704 -34.96919226 206.41713618 -34.96069336 220.19937134 C-34.96016791 221.04908874 -34.95964247 221.89880614 -34.9591011 222.77427255 C-34.956491 227.03710901 -34.95396359 231.29994551 -34.95147729 235.56278205 C-34.93074814 270.92017717 -34.89552554 306.27754557 -34.85083008 341.63491821 C-33.58577375 340.69338503 -32.32173073 339.75049028 -31.05810547 338.80703735 C-30.35408096 338.28211197 -29.65005646 337.75718658 -28.92469788 337.21635437 C-25.94700655 334.94570398 -23.11345424 332.52846439 -20.28833008 330.07241821 C-19.69536133 329.5606604 -19.10239258 329.04890259 -18.49145508 328.52163696 C-16.6088026 326.89553042 -14.72950303 325.2656199 -12.85083008 323.63491821 C-11.60219662 322.55281258 -10.35349881 321.4707812 -9.10473633 320.38882446 C-7.22359257 318.75846722 -5.34267973 317.12784685 -3.46240234 315.49649048 C6.8369865 306.56306125 17.18568107 297.68488782 27.6262207 288.91665649 C29.0950232 287.68048895 30.55776607 286.43713238 32.02026367 285.19351196 C44.1721571 275.00660555 55.35753687 267.53646956 71.79760742 268.84585571 C83.78639175 270.85028968 91.86710094 277.62917651 100.70385742 285.39126587 C102.49931685 286.93621018 104.36279727 288.36163945 106.27416992 289.75991821 C112.65944909 294.44245627 118.72656159 299.53404943 124.71948242 304.70523071 C125.33033691 305.23229614 125.94119141 305.75936157 126.57055664 306.30239868 C127.7545155 307.32702102 128.93600078 308.3545115 130.11450195 309.38540649 C130.66734863 309.86477661 131.22019531 310.34414673 131.78979492 310.83804321 C132.26964844 311.25731079 132.74950195 311.67657837 133.24389648 312.10855103 C135.04567292 313.55200391 136.88726315 314.89250778 138.76824951 316.23031616 C139.4007449 316.68060558 140.03324028 317.130895 140.68490219 317.59482956 C141.16811054 317.93805882 141.65131889 318.28128807 142.14916992 318.63491821 C142.84601332 317.93438765 143.54285671 317.23385708 144.26081657 316.51209831 C161.23503096 299.44899488 178.2208404 282.39750158 195.21879387 265.35804558 C203.43868615 257.11754834 211.65480188 248.87335134 219.86206055 240.62026978 C227.0174313 233.42496822 234.17986003 226.23678028 241.35077012 219.05696404 C245.14571675 215.25681331 248.93709142 211.45324973 252.72002792 207.64113998 C256.28503121 204.04886923 259.85943919 200.46622695 263.44109535 196.89056206 C264.74981529 195.58074696 266.05514392 194.26753261 267.35668373 192.9505825 C278.27835032 181.90604541 288.04307399 173.8057801 304.18823242 172.61148071 C315.61327544 172.70191641 325.28057375 177.75718781 333.46166992 185.44741821 C338.22069316 190.41739106 342.29203389 195.9121999 346.41748047 201.40689087 C349.80744474 205.91856008 353.31695633 210.19287135 357.13745117 214.34976196 C359.70563673 217.26702129 362.07920332 220.31540894 364.46166992 223.38491821 C368.09095744 228.06002846 371.79813466 232.64066935 375.64916992 237.13491821 C382.38390428 245.01048302 388.7496198 253.16615307 395.02807617 261.40835571 C395.48947998 262.01292603 395.95088379 262.61749634 396.42626953 263.24038696 C397.30915352 264.39944205 398.18899513 265.5608224 399.06542969 266.72476196 C400.07024953 268.04603279 401.10646415 269.34333616 402.14916992 270.63491821 C402.47916992 270.63491821 402.80916992 270.63491821 403.14916992 270.63491821 C403.24263464 242.88825356 403.31315971 215.14161252 403.35641861 187.39482212 C403.37703884 174.51134032 403.40514933 161.62795636 403.45092773 148.74453735 C403.49081177 137.51461326 403.51660665 126.28476003 403.5255239 115.05476707 C403.53073594 109.10922754 403.54297529 103.16389074 403.57209015 97.21841621 C403.59928376 91.61980087 403.60760682 86.02147137 403.60160065 80.42279625 C403.60269911 78.37055024 403.61062928 76.31829446 403.62599182 74.26610565 C403.64598135 71.45754797 403.6410764 68.65006043 403.63018799 65.84147644 C403.64183935 65.03502908 403.65349072 64.22858172 403.66549516 63.39769655 C403.57055834 54.29802466 399.38252414 46.17099604 393.14916992 39.63491821 C386.4084795 34.17701628 380.14608602 31.38819571 371.37648296 31.37764931 C370.38750943 31.3723902 370.38750943 31.3723902 369.37855664 31.36702484 C367.17169456 31.35772904 364.96509742 31.36262935 362.75822449 31.36749268 C361.15903567 31.3637555 359.55984867 31.3591537 357.96066457 31.35376203 C353.56776459 31.34152502 349.17494074 31.34179332 344.7820276 31.34415078 C340.04366339 31.34455877 335.30532365 31.33352154 330.56697083 31.32403564 C321.2842917 31.30742096 312.00163798 31.30192589 302.71894523 31.30081089 C295.17387131 31.29986066 287.62880578 31.29575164 280.08373451 31.28940964 C258.6938091 31.27179616 237.30390375 31.26257097 215.91397103 31.26407059 C214.76077368 31.2641505 213.60757632 31.26423041 212.41943359 31.26431274 C210.6875265 31.26443539 210.6875265 31.26443539 208.92063139 31.26456051 C190.20646425 31.2653735 171.49237759 31.2462328 152.77823373 31.21803601 C133.56439373 31.18931466 114.35059298 31.1754953 95.13673097 31.17722356 C84.34890839 31.17788771 73.56117018 31.17238454 62.77336693 31.15086746 C53.58878187 31.13266557 44.40431942 31.12830021 35.21972414 31.14188631 C30.53404007 31.14842087 25.84859129 31.1485155 21.16292953 31.13117981 C16.87142307 31.11546573 12.58033878 31.11829562 8.28884272 31.13574807 C6.73839925 31.13882163 5.18792441 31.13517213 3.63751795 31.12402792 C-4.59709961 31.06876979 -11.62164598 31.28515001 -18.85083008 35.63491821 Z M287.81323242 215.60757446 C286.93388031 216.48642807 286.0545282 217.36528168 285.14852905 218.27076721 C282.82495369 220.59727407 280.50855996 222.93065297 278.19470215 225.26681519 C276.29748162 227.17748597 274.39099894 229.0787757 272.48435402 230.98003483 C270.21374787 233.2465065 267.95121357 235.52099323 265.68823242 237.79507446 C264.83210358 238.6502919 263.97597473 239.50550934 263.09390259 240.38664246 C262.31243866 241.1776384 261.53097473 241.96863434 260.72583008 242.78359985 C260.0333316 243.48070572 259.34083313 244.17781158 258.62734985 244.89604187 C256.93327567 246.50851173 256.93327567 246.50851173 257.14916992 248.63491821 C256.56505844 248.89371262 255.98094696 249.15250702 255.37913513 249.41914368 C252.97537704 250.7296699 251.39573618 252.14740543 249.46972656 254.08731079 C248.76542007 254.79176834 248.06111359 255.49622589 247.33546448 256.22203064 C246.58433884 256.98347885 245.8332132 257.74492706 245.05932617 258.52944946 C244.27778671 259.31381882 243.49624725 260.09818817 242.69102478 260.90632629 C240.19317174 263.41536671 237.70234883 265.93125799 235.21166992 268.44741821 C233.53830317 270.13081967 231.86448013 271.81376769 230.19018555 273.49624634 C227.10995071 276.59280645 224.03235779 279.69193939 220.95800781 282.79434204 C216.05804728 287.73755914 211.12937513 292.65156852 206.19651794 297.56192017 C202.99948002 300.74556967 199.80509148 303.93187187 196.61083984 307.11831665 C194.92716179 308.79694644 193.24259005 310.47468033 191.55712891 312.15151978 C189.11538563 314.58111981 186.67689836 317.01394722 184.23901367 319.44741821 C183.11232521 320.56636475 183.11232521 320.56636475 181.96287537 321.70791626 C178.46131723 325.20909889 175.16865555 328.69867975 172.14916992 332.63491821 C171.01372338 333.69036739 169.84652089 334.71275459 168.64916992 335.69741821 C164.29250665 339.39894415 160.31958482 343.42820302 156.36206055 347.54727173 C152.00708973 352.00507623 149.14518464 353.92076914 142.89916992 354.13491821 C136.53800093 353.97546939 133.7129411 351.82171708 129.14916992 347.63491821 C127.58008451 346.29178529 125.99928206 344.96318365 124.41821289 343.63418579 C122.70892769 342.19510948 121.00912372 340.74533563 119.30932617 339.29507446 C116.80582343 337.17226474 114.25757642 335.12845173 111.64916992 333.13491821 C105.63289784 328.52390677 99.91391197 323.55321692 94.14916992 318.63491821 C90.33093759 315.38120651 86.50542121 312.13671002 82.6628418 308.91177368 C81.20767157 307.68426718 79.76409089 306.44306153 78.32104492 305.20132446 C77.45995117 304.4781604 76.59885742 303.75499634 75.71166992 303.00991821 C74.59985352 302.06245728 74.59985352 302.06245728 73.46557617 301.09585571 C70.51092767 299.23238432 68.65715232 298.67838764 65.14916992 298.63491821 C59.64634447 301.10620973 55.68634649 304.64804603 51.39916992 308.82241821 C46.40280939 313.57409964 41.30940752 318.07693036 35.92651367 322.39273071 C32.79063981 324.92436447 29.7176678 327.52244508 26.64916992 330.13491821 C22.64682986 333.54035096 18.61267485 336.89516423 14.52416992 340.19741821 C9.82061641 344.02161172 5.35827192 348.06176751 0.89916992 352.16616821 C-2.66132567 355.36252221 -6.37348835 358.34664971 -10.09692383 361.34976196 C-12.95165141 363.71857847 -15.68522218 366.18418238 -18.41333008 368.69741821 C-22.77869434 372.717322 -27.28285579 376.47832008 -31.95239258 380.13882446 C-33.75109771 381.49595146 -33.75109771 381.49595146 -34.85083008 382.63491821 C-34.96576361 384.51970894 -35.01049344 386.40881542 -35.02783203 388.29702759 C-35.04066727 389.50918945 -35.0535025 390.72135132 -35.06672668 391.97024536 C-35.07489872 393.30638216 -35.08234156 394.64252358 -35.08911133 395.97866821 C-35.09318686 396.65053665 -35.09726238 397.32240509 -35.10146141 398.01463318 C-35.12235664 401.57816259 -35.13663718 405.14165322 -35.14599609 408.70523071 C-35.1570028 412.36915151 -35.19132445 416.0324552 -35.23116779 419.69615936 C-35.25746666 422.52567585 -35.26570009 425.3550492 -35.26927757 428.18467712 C-35.2764578 430.18587937 -35.30285251 432.18698331 -35.32966614 434.1880188 C-35.31216217 441.59138559 -34.62191716 447.20080941 -30.85083008 453.63491821 C-30.39321289 454.4328479 -29.9355957 455.23077759 -29.46411133 456.05288696 C-24.37503813 462.97586042 -18.11310406 467.26622982 -9.85083008 469.63491821 C-6.57704736 469.93357636 -6.57704736 469.93357636 -3.07814312 469.89218712 C-2.08916959 469.89744623 -2.08916959 469.89744623 -1.0802168 469.90281159 C1.12664529 469.91210738 3.33324243 469.90720707 5.54011536 469.90234375 C7.13930418 469.90608093 8.73849117 469.91068272 10.33767527 469.9160744 C14.73057525 469.9283114 19.12339911 469.9280431 23.51631224 469.92568564 C28.25467645 469.92527766 32.9930162 469.93631488 37.73136902 469.94580078 C47.01404814 469.96241546 56.29670187 469.96791053 65.57939462 469.96902554 C73.12446853 469.96997576 80.66953407 469.97408479 88.21460533 469.98042679 C109.60453075 469.99804026 130.99443609 470.00726546 152.38436881 470.00576584 C153.53756617 470.00568593 154.69076352 470.00560602 155.87890625 470.00552368 C157.61081334 470.00540104 157.61081334 470.00540104 159.37770846 470.00527592 C178.09187559 470.00446293 196.80596226 470.02360363 215.52010611 470.05180041 C234.73394611 470.08052176 253.94774686 470.09434113 273.16160887 470.09261286 C283.94943145 470.09194872 294.73716967 470.09745188 305.52497292 470.11896896 C314.70955798 470.13717086 323.89402043 470.14153621 333.0786157 470.12795012 C337.76429977 470.12141556 342.44974855 470.12132092 347.13541031 470.13865662 C351.42691678 470.1543707 355.71800106 470.1515408 360.00949713 470.13408835 C361.55994059 470.13101479 363.11041543 470.1346643 364.66082189 470.1458085 C372.89543945 470.20106664 379.91998583 469.98468641 387.14916992 465.63491821 C387.94709961 465.17730103 388.7450293 464.71968384 389.56713867 464.24819946 C396.40252198 459.22351372 400.97774525 452.87555119 403.14916992 444.63491821 C403.48467843 440.65948928 403.51501858 436.68934421 403.55078125 432.70132446 C403.56874252 431.50374008 403.5867038 430.3061557 403.60520935 429.07228088 C403.65987358 425.11406181 403.69836715 421.15586208 403.73120117 417.19741821 C403.73714727 416.52123444 403.74309337 415.84505066 403.74921966 415.14837646 C403.80514742 408.75683829 403.8537664 402.36529015 403.88336658 395.97357178 C403.92142912 387.83586531 403.99641407 379.70043133 404.12320501 371.56360912 C404.20959179 365.8214993 404.25298834 360.07999468 404.26548404 354.33725452 C404.27403384 350.91750955 404.30049202 347.50026849 404.37333107 344.08123779 C405.15255866 325.44293698 405.15255866 325.44293698 396.48737049 309.73599243 C395.06279886 308.34658189 393.60596889 306.99050029 392.14916992 305.63491821 C390.25857085 303.49319438 388.45653661 301.28434929 386.64916992 299.07241821 C385.73509442 297.99469431 384.8187341 296.91890024 383.89916992 295.84585571 C383.21854492 295.05066528 383.21854492 295.05066528 382.52416992 294.2394104 C382.07041992 293.70992798 381.61666992 293.18044556 381.14916992 292.63491821 C372.64035374 282.70595161 364.43025338 272.58888602 356.51635742 262.17788696 C352.2175464 256.52739215 347.83576973 251.04409076 343.05932617 245.78335571 C340.40797569 242.80126416 337.94622046 239.68428204 335.46948242 236.55679321 C330.96191783 230.88060076 326.3831938 225.2630435 321.79077148 219.65542603 C320.20274093 217.70085422 318.63906834 215.72891216 317.07885742 213.75210571 C316.12364633 212.56679219 315.16794269 211.38187538 314.21166992 210.19741821 C313.78781006 209.64787476 313.3639502 209.0983313 312.92724609 208.53213501 C310.84608638 205.989858 309.32718293 204.69756555 306.20776367 203.59976196 C298.13661713 203.69253376 293.10023202 210.26288188 287.81323242 215.60757446 Z " fill="#040404" transform="translate(65.850830078125,-0.634918212890625)"/>
<path d="M0 0 C15.78824499 12.46097022 26.31568463 28.70547467 28.9609375 48.86328125 C30.38442523 70.1341846 25.99149915 88.31281828 11.9609375 104.86328125 C11.45175781 105.5284375 10.94257813 106.19359375 10.41796875 106.87890625 C-1.13051843 121.36441609 -19.12450396 128.63787025 -37.0390625 130.86328125 C-54.62376929 132.56961398 -72.73447503 126.62991731 -86.6015625 115.86328125 C-88.10025088 114.55192892 -89.5809167 113.21957128 -91.0390625 111.86328125 C-91.7196875 111.27289063 -92.4003125 110.6825 -93.1015625 110.07421875 C-106.44782369 97.82276805 -113.96721005 80.30855422 -115.29296875 62.44140625 C-115.89738691 43.95790889 -110.3550485 25.2913112 -97.7890625 11.42578125 C-71.54258844 -15.9763416 -31.64012518 -22.24569213 0 0 Z M-61.0390625 21.86328125 C-61.81636719 22.29898438 -62.59367187 22.7346875 -63.39453125 23.18359375 C-73.23239945 29.21484963 -78.5108122 36.92862123 -82.0390625 47.86328125 C-84.41937787 59.85524982 -82.72987783 71.39820134 -76.359375 81.96484375 C-70.02461081 91.07341001 -60.36510703 96.4896479 -49.6015625 98.5078125 C-37.31824357 99.75533708 -25.88634647 97.56911819 -16.0390625 89.86328125 C-8.15594456 82.74349339 -2.67511094 73.34139357 -1.765625 62.6484375 C-1.41907866 49.94618136 -4.3756397 39.83604692 -12.875 30.015625 C-16.27831307 26.63074142 -19.82190045 24.13515306 -24.0390625 21.86328125 C-24.76351562 21.45078125 -25.48796875 21.03828125 -26.234375 20.61328125 C-36.80791561 15.45195973 -50.89696699 16.06265113 -61.0390625 21.86328125 Z " fill="#060606" transform="translate(200.0390625,74.13671875)"/>
</svg>
